<svg width="188" height="56" viewBox="0 0 188 56" fill="none" xmlns="http://www.w3.org/2000/svg">
<g clip-path="url(#clip0_270_3959)">
<path d="M186.753 49.387C186.753 52.35 184.365 54.75 181.411 54.75H6.58917C3.63667 54.75 1.24023 52.35 1.24023 49.387V6.61862C1.24023 3.65705 3.63679 1.2486 6.58917 1.2486H181.409C184.365 1.2486 186.752 3.65705 186.752 6.61862L186.753 49.387Z" fill="#EDEDF8"/>
<path d="M181.411 55.9974H6.58913C2.95668 55.9974 0 53.033 0 49.3867V6.6198C0 2.9707 2.95668 0.00213623 6.58913 0.00213623H181.409C185.038 0.00213623 187.998 2.9707 187.998 6.6198V49.3867C188.001 53.033 185.04 55.9974 181.411 55.9974Z" fill="#A6A6A6"/>
<path d="M186.753 49.387C186.753 52.35 184.365 54.75 181.411 54.75H6.58917C3.63667 54.75 1.24023 52.35 1.24023 49.387V6.61862C1.24023 3.65705 3.63679 1.2486 6.58917 1.2486H181.409C184.365 1.2486 186.752 3.65705 186.752 6.61862L186.753 49.387Z" fill="black"/>
<path d="M41.9782 27.7052C41.9378 23.1922 45.6553 20.9966 45.8253 20.8943C43.7199 17.8096 40.4568 17.3881 39.3101 17.3545C36.5694 17.0646 33.9109 19.0026 32.5147 19.0026C31.0908 19.0026 28.9408 17.3825 26.6237 17.4301C23.6419 17.4763 20.8526 19.2112 19.3226 21.9053C16.1654 27.3986 18.52 35.4711 21.5451 39.9114C23.0581 42.0874 24.8264 44.514 27.1406 44.4286C29.4048 44.3362 30.2506 42.9793 32.9829 42.9793C35.6901 42.9793 36.4844 44.4286 38.8446 44.374C41.2747 44.3362 42.8045 42.1896 44.2648 39.9954C46.0135 37.5043 46.7156 35.0482 46.7436 34.9222C46.6877 34.9026 42.0256 33.1131 41.9782 27.7052ZM37.5195 14.4335C38.7372 12.903 39.5705 10.8208 39.3392 8.70782C37.5765 8.78624 35.3724 9.93306 34.1029 11.4299C32.9799 12.749 31.9767 14.911 32.2359 16.9442C34.2159 17.0926 36.2488 15.9402 37.5195 14.4335Z" fill="#EDEDF8"/>
<path d="M181.411 0.00238037H87.7715L124.449 55.9976H181.411C185.04 55.9976 188 53.0333 188 49.3828V6.62004C188.002 2.97095 185.041 0.00238037 181.411 0.00238037Z" fill="url(#paint0_linear_270_3959)"/>
<path d="M74.7743 44.1164H71.6101L69.8767 38.6427H63.8518L62.2007 44.1164H59.1201L65.0906 25.4816H68.7774L74.7743 44.1164ZM69.3544 36.3463L67.7868 31.4804C67.621 30.9833 67.3089 29.8126 66.8518 27.9699H66.7962C66.6122 28.7624 66.3183 29.9331 65.9156 31.4804L64.3745 36.3463H69.3544ZM90.0985 37.2326C90.0985 39.5179 89.4812 41.3242 88.2452 42.6504C87.139 43.8307 85.7638 44.4203 84.1237 44.4203C82.3528 44.4203 81.0792 43.7859 80.3059 42.5146V49.5649H77.3353V35.0958C77.3353 33.6605 77.2978 32.1889 77.2254 30.6794H79.8379L80.0037 32.8092H80.0593C81.05 31.2045 82.5534 30.402 84.571 30.402C86.1482 30.402 87.4649 31.0279 88.5183 32.2812C89.5703 33.5373 90.0985 35.1869 90.0985 37.2326ZM87.072 37.3419C87.072 36.034 86.7794 34.9558 86.1914 34.1059C85.5491 33.2223 84.6866 32.7799 83.6054 32.7799C82.8725 32.7799 82.2065 33.0262 81.6115 33.5121C81.0151 34.0022 80.625 34.6422 80.4426 35.4347C80.3506 35.8044 80.3047 36.1054 80.3047 36.3436V38.5853C80.3047 39.5613 80.6028 40.3862 81.1992 41.0611C81.7955 41.7332 82.5702 42.0706 83.5233 42.0706C84.6423 42.0706 85.5131 41.6352 86.1358 40.7711C86.7599 39.9044 87.072 38.7617 87.072 37.3419ZM105.477 37.2326C105.477 39.5179 104.859 41.3242 103.624 42.6504C102.516 43.8307 101.142 44.4203 99.5007 44.4203C97.7297 44.4203 96.4562 43.7859 95.6829 42.5146V49.5649H92.7123V35.0958C92.7123 33.6605 92.6747 32.1889 92.6022 30.6794H95.2147L95.3805 32.8092H95.4363C96.4255 31.2045 97.929 30.402 99.9478 30.402C101.524 30.402 102.84 31.0279 103.897 32.2812C104.947 33.5373 105.477 35.1869 105.477 37.2326ZM102.449 37.3419C102.449 36.034 102.155 34.9558 101.567 34.1059C100.925 33.2223 100.065 32.7799 98.9837 32.7799C98.2508 32.7799 97.5848 33.0262 96.9871 33.5121C96.3907 34.0022 96.0021 34.6422 95.8194 35.4347C95.7289 35.8044 95.6801 36.1054 95.6801 36.3436V38.5853C95.6801 39.5613 95.9797 40.3862 96.5732 41.0611C97.1696 41.7318 97.9443 42.0706 98.9001 42.0706C100.02 42.0706 100.891 41.6352 101.513 40.7711C102.137 39.9044 102.449 38.7617 102.449 37.3419ZM122.671 38.8892C122.671 40.4757 122.119 41.7653 121.022 42.7609C119.816 43.8475 118.131 44.3922 115.971 44.3922C113.976 44.3922 112.377 44.0057 111.17 43.2314L111.857 40.7431C113.16 41.5189 114.591 41.9053 116.148 41.9053C117.269 41.9053 118.139 41.6505 118.761 41.145C119.384 40.6381 119.699 39.9604 119.699 39.1146C119.699 38.3572 119.438 37.7227 118.927 37.2062C118.413 36.6909 117.563 36.2106 116.369 35.7695C113.122 34.5527 111.497 32.7729 111.497 30.4317C111.497 28.9026 112.071 27.6507 113.217 26.672C114.362 25.6946 115.881 25.206 117.77 25.206C119.458 25.206 120.864 25.5014 121.98 26.091L121.234 28.5245C120.184 27.9532 118.998 27.6675 117.671 27.6675C116.624 27.6675 115.801 27.9266 115.213 28.4419C114.719 28.9026 114.468 29.4642 114.468 30.1306C114.468 30.8659 114.754 31.4764 115.322 31.9553C115.815 32.3962 116.715 32.8767 118.017 33.392C119.614 34.0389 120.787 34.7922 121.538 35.6576C122.294 36.5227 122.671 37.6023 122.671 38.8892ZM132.517 32.9198H129.243V39.4437C129.243 41.103 129.82 41.9305 130.976 41.9305C131.507 41.9305 131.948 41.8856 132.296 41.7919L132.378 44.0589C131.793 44.2789 131.022 44.3894 130.068 44.3894C128.895 44.3894 127.978 44.0295 127.316 43.3098C126.657 42.5901 126.325 41.3844 126.325 39.6873V32.9142H124.375V30.6738H126.325V28.2135L129.243 27.3286V30.6738H132.517V32.9198ZM147.262 37.2873C147.262 39.3525 146.674 41.0483 145.501 42.3744C144.273 43.7397 142.64 44.4202 140.604 44.4202C138.64 44.4202 137.078 43.7663 135.913 42.4598C134.748 41.1505 134.166 39.5011 134.166 37.5113C134.166 35.429 134.768 33.7236 135.967 32.3975C137.17 31.0701 138.789 30.4065 140.824 30.4065C142.786 30.4065 144.362 31.0617 145.555 32.3695C146.695 33.6382 147.262 35.2765 147.262 37.2873ZM144.182 37.3559C144.182 36.1249 143.918 35.0691 143.387 34.1856C142.764 33.1185 141.872 32.5852 140.717 32.5852C139.527 32.5852 138.615 33.1185 137.993 34.1856C137.461 35.0691 137.196 36.1431 137.196 37.4118C137.196 38.6441 137.461 39.7026 137.993 40.5835C138.636 41.6505 139.531 42.184 140.692 42.184C141.828 42.184 142.718 41.6393 143.362 40.5569C143.908 39.6523 144.182 38.5895 144.182 37.3559ZM156.922 33.3049C156.628 33.2502 156.313 33.2222 155.986 33.2222C154.941 33.2222 154.132 33.6172 153.564 34.4124C153.071 35.1125 152.823 35.9975 152.823 37.0659V44.1162H149.852V34.911C149.852 33.3637 149.823 31.9522 149.766 30.6808H152.353L152.462 33.2516H152.544C152.859 32.3681 153.352 31.6553 154.029 31.1218C154.691 30.6416 155.406 30.402 156.177 30.402C156.451 30.402 156.699 30.4216 156.919 30.4568L156.922 33.3049ZM170.207 36.7622C170.207 37.2971 170.173 37.7478 170.099 38.1162H161.187C161.22 39.4437 161.652 40.4603 162.48 41.1604C163.231 41.785 164.202 42.0986 165.395 42.0986C166.714 42.0986 167.918 41.8885 169.001 41.4643L169.466 43.5352C168.201 44.0898 166.707 44.3656 164.984 44.3656C162.911 44.3656 161.283 43.7522 160.099 42.5285C158.917 41.3032 158.325 39.6565 158.325 37.5939C158.325 35.569 158.875 33.8818 159.977 32.5362C161.131 31.0995 162.69 30.381 164.652 30.381C166.579 30.381 168.038 31.0994 169.029 32.5362C169.813 33.6746 170.207 35.086 170.207 36.7622ZM167.375 35.9878C167.396 35.1014 167.201 34.3383 166.798 33.6928C166.284 32.861 165.492 32.4465 164.432 32.4465C163.461 32.4465 162.669 32.8512 162.067 33.6634C161.573 34.3089 161.279 35.0846 161.188 35.985L167.375 35.9878Z" fill="#EDEDF8"/>
<path d="M67.9212 18.8122H66.3647L65.5133 16.1223H62.5525L61.7402 18.8122H60.2256L63.16 9.65304H64.9713L67.9212 18.8122ZM65.257 14.9937L64.4864 12.602C64.4056 12.3569 64.2565 11.787 64.0266 10.8769H63.9988C63.904 11.2703 63.7689 11.8417 63.5654 12.602L62.8088 14.9937H65.257ZM75.2584 12.2085L72.7699 18.8122H71.3499L68.9424 12.2085H70.5113L71.6343 15.7008C71.8238 16.2847 71.9854 16.842 72.1066 17.3713H72.147C72.2558 16.8966 72.4174 16.3393 72.6194 15.7008L73.7285 12.2085H75.2584ZM80.5559 18.8122L80.4472 18.0517H80.4067C79.9608 18.6636 79.3115 18.9619 78.4868 18.9619C77.3107 18.9619 76.4719 18.1329 76.4719 17.0183C76.4719 15.3884 77.8778 14.5454 80.3119 14.5454V14.4236C80.3119 13.5541 79.8521 13.1186 78.9465 13.1186C78.297 13.1186 77.7287 13.2824 77.2299 13.6087L76.933 12.6439C77.5419 12.263 78.2986 12.0726 79.1916 12.0726C80.9082 12.0726 81.7748 12.9828 81.7748 14.8045V17.2368C81.7748 17.9033 81.8027 18.42 81.8696 18.8135L80.5559 18.8122ZM80.3525 15.523C78.7293 15.523 77.9183 15.9178 77.9183 16.8546C77.9183 17.5477 78.3377 17.8866 78.9187 17.8866C79.6626 17.8866 80.3525 17.3167 80.3525 16.5423V15.523ZM85.0271 11.1205C84.5409 11.1205 84.1619 10.7396 84.1619 10.2369C84.1619 9.73425 84.5535 9.36738 85.055 9.36738C85.5552 9.36738 85.9607 9.73425 85.9469 10.2369C85.9469 10.7676 85.5693 11.1205 85.0271 11.1205ZM85.7851 18.8122H84.3249V12.2085H85.7851V18.8122ZM89.8398 18.8122H88.3795V9.17834H89.8398V18.8122ZM96.0457 18.8122L95.9369 18.0517H95.8966C95.4508 18.6636 94.8015 18.9619 93.9766 18.9619C92.8006 18.9619 91.9618 18.1329 91.9618 17.0183C91.9618 15.3884 93.3676 14.5454 95.8018 14.5454V14.4236C95.8018 13.5541 95.342 13.1186 94.4363 13.1186C93.787 13.1186 93.2185 13.2824 92.7197 13.6087L92.4216 12.6425C93.0305 12.2616 93.7871 12.0712 94.6802 12.0712C96.3968 12.0712 97.2634 12.9814 97.2634 14.8031V17.2354C97.2634 17.9019 97.2928 18.4186 97.3568 18.8121L96.0457 18.8122ZM95.8423 15.523C94.219 15.523 93.4081 15.9178 93.4081 16.8546C93.4081 17.5477 93.8274 17.8866 94.4084 17.8866C95.1525 17.8866 95.8423 17.3167 95.8423 16.5423V15.523ZM103.18 18.962C102.248 18.962 101.559 18.5671 101.113 17.7928H101.084L101 18.8122H99.7562C99.7966 18.2829 99.8105 17.6836 99.8105 17.0324V9.17834H101.272V13.1747H101.3C101.733 12.441 102.434 12.0741 103.396 12.0741C104.978 12.0741 106.088 13.4338 106.088 15.4165C106.088 17.4665 104.856 18.962 103.18 18.962ZM102.883 13.2265C102.043 13.2265 101.274 13.9603 101.274 14.9796V16.1349C101.274 17.045 101.965 17.7928 102.858 17.7928C103.952 17.7928 104.602 16.8966 104.602 15.4697C104.601 14.1381 103.924 13.2265 102.883 13.2265ZM109.706 18.8122H108.247V9.17834H109.706V18.8122ZM117.655 15.8632H113.272C113.301 17.1137 114.123 17.8194 115.341 17.8194C115.99 17.8194 116.585 17.7102 117.112 17.5071L117.339 18.5265C116.717 18.7982 115.987 18.934 115.136 18.934C113.079 18.934 111.863 17.629 111.863 15.6056C111.863 13.5808 113.109 12.0587 114.972 12.0587C116.648 12.0587 117.704 13.3091 117.704 15.1981C117.709 15.4557 117.697 15.6868 117.655 15.8632ZM116.316 14.8172C116.316 13.7978 115.802 13.0781 114.868 13.0781C114.029 13.0781 113.369 13.8118 113.272 14.8172H116.316ZM126.506 18.962C124.586 18.962 123.341 17.5211 123.341 15.565C123.341 13.5262 124.612 12.0727 126.616 12.0727C128.506 12.0727 129.78 13.445 129.78 15.4571C129.78 17.5211 128.467 18.962 126.506 18.962ZM126.561 13.1453C125.507 13.1453 124.831 14.1367 124.831 15.523C124.831 16.8826 125.521 17.874 126.548 17.874C127.574 17.874 128.263 16.814 128.263 15.4949C128.264 14.1507 127.588 13.1453 126.561 13.1453ZM137.63 18.8122H136.171V15.0203C136.171 13.8524 135.725 13.2671 134.846 13.2671C133.981 13.2671 133.385 14.0149 133.385 14.8844V18.8122H131.926V14.0961C131.926 13.5122 131.911 12.8863 131.872 12.2071H133.156L133.224 13.2265H133.265C133.655 12.5208 134.455 12.0713 135.347 12.0713C136.725 12.0713 137.63 13.1313 137.63 14.8564L137.63 18.8122ZM147.184 13.3091H145.578V16.5157C145.578 17.3321 145.861 17.7396 146.428 17.7396C146.685 17.7396 146.903 17.7116 147.077 17.671L147.117 18.7856C146.833 18.8949 146.453 18.9494 145.983 18.9494C144.832 18.9494 144.145 18.3109 144.145 16.639V13.3091H143.187V12.2085H144.145V10.9987L145.578 10.5632V12.2071H147.184V13.3091ZM154.917 18.8122H153.456V15.0483C153.456 13.8664 153.01 13.2685 152.131 13.2685C151.374 13.2685 150.672 13.7852 150.672 14.8312V18.8122H149.21V9.17834H150.672V13.1453H150.7C151.16 12.4256 151.823 12.0713 152.674 12.0713C154.066 12.0713 154.917 13.1579 154.917 14.8844V18.8122ZM162.379 15.8632H157.997C158.025 17.1137 158.847 17.8194 160.065 17.8194C160.715 17.8194 161.309 17.7102 161.836 17.5071L162.064 18.5265C161.442 18.7982 160.711 18.934 159.86 18.934C157.803 18.934 156.587 17.629 156.587 15.6056C156.587 13.5808 157.833 12.0587 159.695 12.0587C161.372 12.0587 162.428 13.3091 162.428 15.1981C162.433 15.4557 162.419 15.6868 162.379 15.8632ZM161.04 14.8172C161.04 13.7978 160.527 13.0781 159.593 13.0781C158.753 13.0781 158.093 13.8118 157.997 14.8172H161.04Z" fill="#EDEDF8"/>
</g>
<defs>
<linearGradient id="paint0_linear_270_3959" x1="137.887" y1="56.1498" x2="137.887" y2="5.67579" gradientUnits="userSpaceOnUse">
<stop stop-color="#1A1A1A" stop-opacity="0.1"/>
<stop offset="0.123" stop-color="#212121" stop-opacity="0.151"/>
<stop offset="0.308" stop-color="#353535" stop-opacity="0.227"/>
<stop offset="0.532" stop-color="#575757" stop-opacity="0.318"/>
<stop offset="0.783" stop-color="#858585" stop-opacity="0.421"/>
<stop offset="1" stop-color="#B3B3B3" stop-opacity="0.51"/>
</linearGradient>
<clipPath id="clip0_270_3959">
<rect width="188" height="56" fill="white"/>
</clipPath>
</defs>
</svg>
