<svg width="186" height="56" viewBox="0 0 186 56" fill="none" xmlns="http://www.w3.org/2000/svg">
<g clip-path="url(#clip0_270_3949)">
<path d="M179.069 56H6.93139C3.14437 56 0.0458984 52.85 0.0458984 49V7C0.0458984 3.15 3.14437 0 6.93139 0H179.069C182.856 0 185.954 3.15 185.954 7V49C185.954 52.85 182.856 56 179.069 56Z" fill="black"/>
<path d="M179.069 1.12C180.603 1.12 182.074 1.7395 183.158 2.84221C184.243 3.94493 184.852 5.44053 184.852 7V49C184.852 50.5595 184.243 52.0551 183.158 53.1578C182.074 54.2605 180.603 54.88 179.069 54.88H6.93139C5.39742 54.88 3.92629 54.2605 2.84161 53.1578C1.75694 52.0551 1.14758 50.5595 1.14758 49V7C1.14758 5.44053 1.75694 3.94493 2.84161 2.84221C3.92629 1.7395 5.39742 1.12 6.93139 1.12H179.069ZM179.069 0H6.93139C3.14437 0 0.0458984 3.15 0.0458984 7V49C0.0458984 52.85 3.14437 56 6.93139 56H179.069C182.856 56 185.954 52.85 185.954 49V7C185.954 3.15 182.856 0 179.069 0Z" fill="#A6A6A6"/>
<path d="M65.3472 14.336C65.3472 15.512 65.0029 16.45 64.3143 17.136C63.5432 17.962 62.5379 18.382 61.2847 18.382C60.0867 18.382 59.0676 17.962 58.2413 17.122C57.4151 16.282 57.002 15.232 57.002 14C57.002 12.768 57.4151 11.718 58.2413 10.878C59.0676 10.038 60.0867 9.604 61.2847 9.604C61.8907 9.604 62.469 9.716 63.0061 9.926C63.5432 10.15 63.9838 10.458 64.3281 10.85L63.5707 11.62C63.3228 11.312 62.9923 11.06 62.5792 10.892C62.171 10.7114 61.7298 10.6208 61.2847 10.626C60.3896 10.626 59.6184 10.948 58.9987 11.578C58.3791 12.222 58.0761 13.02 58.0761 13.986C58.0761 14.952 58.3791 15.75 58.9987 16.394C59.6184 17.024 60.3758 17.346 61.2847 17.346C62.111 17.346 62.7858 17.108 63.3366 16.646C63.8874 16.184 64.2042 15.526 64.2868 14.714H61.2847V13.706H65.2921C65.3196 13.93 65.3472 14.14 65.3472 14.336ZM71.6956 9.8V10.836H67.9361V13.496H71.3238V14.504H67.9361V17.164H71.6956V18.2H66.8757V9.8H71.6956ZM76.1712 10.836V18.2H75.1108V10.836H72.7973V9.8H78.4709V10.836H76.1712ZM83.6488 18.2H82.5884V9.8H83.6488V18.2ZM88.3585 10.836V18.2H87.2981V10.836H84.9846V9.8H90.6582V10.836H88.3585ZM102.625 14C102.625 15.246 102.212 16.282 101.4 17.122C100.573 17.962 99.5681 18.382 98.37 18.382C97.1719 18.382 96.1666 17.962 95.3404 17.122C94.5279 16.282 94.1147 15.246 94.1147 14C94.1147 12.754 94.5279 11.718 95.3404 10.878C96.1528 10.038 97.1581 9.604 98.37 9.604C99.5681 9.604 100.573 10.024 101.4 10.878C102.226 11.732 102.625 12.768 102.625 14ZM95.2164 14C95.2164 14.966 95.5194 15.778 96.1115 16.408C96.7175 17.038 97.4749 17.36 98.37 17.36C99.2651 17.36 100.022 17.038 100.615 16.408C101.221 15.778 101.524 14.98 101.524 14C101.524 13.02 101.221 12.222 100.615 11.592C100.009 10.962 99.2651 10.64 98.37 10.64C97.4749 10.64 96.7175 10.962 96.1115 11.592C95.5194 12.222 95.2164 13.034 95.2164 14ZM105.173 18.2H104.112V9.8H105.407L109.428 16.338H109.469L109.428 14.714V9.8H110.488V18.2H109.387L105.187 11.354H105.145L105.187 12.978V18.2H105.173Z" fill="#EDEDF8" stroke="#EDEDF8" stroke-miterlimit="10"/>
<path d="M93.8809 30.45C90.6447 30.45 88.0007 32.956 88.0007 36.4C88.0007 39.83 90.6447 42.35 93.8809 42.35C97.1171 42.35 99.7611 39.83 99.7611 36.4C99.7611 32.956 97.1171 30.45 93.8809 30.45ZM93.8809 40.012C92.1044 40.012 90.5758 38.528 90.5758 36.4C90.5758 34.258 92.1044 32.788 93.8809 32.788C95.6573 32.788 97.1859 34.258 97.1859 36.4C97.1859 38.528 95.6436 40.012 93.8809 40.012ZM81.0463 30.45C77.8101 30.45 75.1661 32.956 75.1661 36.4C75.1661 39.83 77.8101 42.35 81.0463 42.35C84.2825 42.35 86.9265 39.83 86.9265 36.4C86.9265 32.956 84.2825 30.45 81.0463 30.45ZM81.0463 40.012C79.2699 40.012 77.7413 38.528 77.7413 36.4C77.7413 34.258 79.2699 32.788 81.0463 32.788C82.8228 32.788 84.3514 34.258 84.3514 36.4C84.3514 38.528 82.8228 40.012 81.0463 40.012ZM65.7881 32.284V34.804H71.7371C71.5581 36.218 71.0899 37.268 70.3876 37.982C69.52 38.864 68.1705 39.83 65.8018 39.83C62.1388 39.83 59.2744 36.834 59.2744 33.11C59.2744 29.386 62.1388 26.39 65.8018 26.39C67.7711 26.39 69.2171 27.174 70.2774 28.196L72.0263 26.418C70.5391 24.976 68.5698 23.87 65.7881 23.87C60.7754 23.87 56.5615 28.014 56.5615 33.124C56.5615 38.22 60.7754 42.378 65.7881 42.378C68.501 42.378 70.5391 41.482 72.1365 39.788C73.7752 38.122 74.2848 35.77 74.2848 33.88C74.2848 33.292 74.2435 32.746 74.1471 32.298H65.7881V32.284ZM128.184 34.244C127.702 32.914 126.215 30.45 123.172 30.45C120.156 30.45 117.65 32.858 117.65 36.4C117.65 39.732 120.128 42.35 123.461 42.35C126.146 42.35 127.702 40.684 128.336 39.718L126.339 38.36C125.678 39.354 124.769 40.012 123.461 40.012C122.153 40.012 121.216 39.41 120.624 38.206L128.46 34.916L128.184 34.244ZM120.197 36.232C120.128 33.936 121.946 32.76 123.254 32.76C124.273 32.76 125.141 33.278 125.43 34.02L120.197 36.232ZM113.835 42H116.41V24.5H113.835V42ZM109.621 31.78H109.525C108.946 31.08 107.845 30.45 106.44 30.45C103.507 30.45 100.821 33.068 100.821 36.428C100.821 39.76 103.507 42.364 106.44 42.364C107.831 42.364 108.946 41.734 109.525 41.006H109.607V41.86C109.607 44.142 108.409 45.36 106.481 45.36C104.911 45.36 103.934 44.212 103.534 43.246L101.29 44.198C101.937 45.78 103.644 47.712 106.481 47.712C109.497 47.712 112.045 45.906 112.045 41.51V30.814H109.607V31.78H109.621ZM106.66 40.012C104.884 40.012 103.397 38.5 103.397 36.428C103.397 34.328 104.884 32.802 106.66 32.802C108.409 32.802 109.786 34.342 109.786 36.428C109.8 38.5 108.423 40.012 106.66 40.012ZM140.248 24.5H134.092V42H136.667V35.364H140.262C143.112 35.364 145.908 33.264 145.908 29.932C145.894 26.6 143.085 24.5 140.248 24.5ZM140.303 32.928H136.654V26.922H140.303C142.231 26.922 143.319 28.546 143.319 29.918C143.319 31.29 142.231 32.928 140.303 32.928ZM156.195 30.422C154.335 30.422 152.408 31.262 151.609 33.096L153.895 34.062C154.377 33.096 155.286 32.774 156.236 32.774C157.558 32.774 158.921 33.586 158.935 35.028V35.21C158.467 34.944 157.475 34.538 156.25 34.538C153.785 34.538 151.292 35.91 151.292 38.472C151.292 40.81 153.303 42.322 155.561 42.322C157.282 42.322 158.246 41.538 158.839 40.614H158.921V41.958H161.4V35.252C161.414 32.158 159.128 30.422 156.195 30.422ZM155.878 40.012C155.038 40.012 153.867 39.578 153.867 38.528C153.867 37.184 155.327 36.666 156.594 36.666C157.723 36.666 158.26 36.918 158.935 37.254C158.839 38.0118 158.477 38.7087 157.915 39.2157C157.353 39.7228 156.629 40.0057 155.878 40.012ZM170.448 30.8L167.501 38.388H167.418L164.361 30.8H161.593L166.178 41.412L163.562 47.306H166.247L173.312 30.8H170.448ZM147.312 42H149.887V24.5H147.312V42Z" fill="#EDEDF8"/>
<path d="M28.5792 27.188L13.9131 43.008V43.022C14.0718 43.6213 14.3645 44.1752 14.7685 44.6404C15.1725 45.1057 15.6768 45.4698 16.242 45.7043C16.8073 45.9387 17.4182 46.0372 18.027 45.9921C18.6359 45.9469 19.2262 45.7593 19.752 45.444L19.7933 45.416L36.2909 35.742L28.5792 27.188Z" fill="#EA4335"/>
<path d="M43.4109 24.5L43.3971 24.486L36.2775 20.286L28.249 27.552L36.305 35.742L43.3971 31.584C44.0244 31.2388 44.5485 30.728 44.9142 30.1053C45.2799 29.4827 45.4737 28.7713 45.4751 28.0462C45.4765 27.321 45.2855 26.6089 44.9222 25.9848C44.5589 25.3607 44.0368 24.8478 43.4109 24.5Z" fill="#FBBC04"/>
<path d="M13.9131 12.992C13.8305 13.328 13.7754 13.664 13.7754 14.028V41.986C13.7754 42.35 13.8167 42.686 13.9131 43.022L29.0749 27.608L13.9131 12.992Z" fill="#4285F4"/>
<path d="M28.6893 28L36.2772 20.286L19.7933 10.57C19.2663 10.2497 18.6736 10.0577 18.0615 10.0091C17.4494 9.96043 16.8346 10.0565 16.2651 10.2897C15.6956 10.5229 15.1869 10.887 14.7789 11.3533C14.3708 11.8197 14.0745 12.3758 13.9131 12.978L28.6893 28Z" fill="#34A853"/>
</g>
<defs>
<clipPath id="clip0_270_3949">
<rect width="186" height="56" fill="white"/>
</clipPath>
</defs>
</svg>
