<svg width="412" height="414" viewBox="0 0 412 414" fill="none" xmlns="http://www.w3.org/2000/svg">
<path d="M205.999 126.5C250.239 126.5 286.107 162.539 286.107 207C286.107 251.461 250.239 287.5 205.999 287.5C161.759 287.5 125.89 251.461 125.89 207C125.89 162.539 161.759 126.5 205.999 126.5Z" stroke="#8ED4DD" stroke-opacity="0.25"/>
<path d="M206.497 75.5C279.042 75.5002 337.855 134.596 337.855 207.5C337.855 280.404 279.042 339.5 206.497 339.5C133.951 339.5 75.1372 280.404 75.1372 207.5C75.1372 134.596 133.951 75.5 206.497 75.5Z" stroke="#8ED4DD" stroke-opacity="0.25"/>
<path d="M205.999 35.5C300.254 35.5 376.667 112.281 376.667 207C376.667 301.719 300.254 378.5 205.999 378.5C111.744 378.5 35.3307 301.719 35.3307 207C35.3307 112.281 111.744 35.5 205.999 35.5Z" stroke="#8ED4DD" stroke-opacity="0.25"/>
<path d="M205.999 0.5C319.49 0.500224 411.497 92.951 411.497 207C411.497 321.049 319.49 413.5 205.999 413.5C92.5076 413.5 0.5 321.049 0.5 207C0.5 92.9509 92.5076 0.5 205.999 0.5Z" stroke="#8ED4DD" stroke-opacity="0.25"/>
<ellipse cx="4.97581" cy="5" rx="4.97581" ry="5" transform="matrix(-1 0 0 1 88.5695 35)" fill="#8ED4DD"/>
<ellipse cx="4.97581" cy="5" rx="4.97581" ry="5" transform="matrix(-1 0 0 1 54.7339 271)" fill="#7E22CE"/>
</svg>
