<svg width="57" height="57" viewBox="0 0 57 57" fill="none" xmlns="http://www.w3.org/2000/svg">
<rect x="57" width="57" height="57" rx="28.5" transform="rotate(90 57 0)" fill="#00E510"/>
<path d="M14 42.333L21.5518 40.2985C24.4936 41.9393 27.9265 42.4606 31.2205 41.7667C34.5144 41.0729 37.4485 39.2105 39.4844 36.5212C41.5202 33.832 42.5212 30.4963 42.3038 27.1263C42.0863 23.7563 40.6649 20.578 38.3004 18.1746C35.9358 15.7713 32.7869 14.3041 29.4312 14.0423C26.0756 13.7804 22.7384 14.7416 20.032 16.7493C17.3257 18.757 15.4317 21.6766 14.6976 24.9724C13.9635 28.2682 14.4386 31.719 16.0356 34.6917L14 42.333ZM18.8616 34.3233L18.5822 33.8507C17.3102 31.6975 16.7839 29.1826 17.0851 26.698C17.3864 24.2133 18.4984 21.8984 20.2478 20.114C21.9972 18.3297 24.2857 17.1761 26.7568 16.833C29.2279 16.4899 31.7426 16.9766 33.9092 18.2173C36.0758 19.458 37.7725 21.3829 38.7349 23.6921C39.6973 26.0014 39.8713 28.5652 39.2299 30.984C38.5885 33.4028 37.1676 35.5408 35.1887 37.0648C33.2098 38.5888 30.784 39.4132 28.2894 39.4095C26.221 39.4115 24.1925 38.8375 22.4299 37.7514L21.943 37.4551L17.728 38.5925L18.8616 34.3233Z" fill="white"/>
<path fill-rule="evenodd" clip-rule="evenodd" d="M26.3503 22.8536C26.573 23.1306 26.7297 23.455 26.8086 23.802C26.8874 24.149 26.8863 24.5095 26.8053 24.856C26.5898 25.3766 25.7755 25.713 25.3684 26.0495C25.2708 26.1204 25.2023 26.2246 25.1759 26.3426C25.1494 26.4606 25.1668 26.5842 25.2247 26.6902C25.9687 28.5963 27.3332 30.194 29.0964 31.2237C29.2064 31.3116 29.3461 31.3531 29.4861 31.3397C29.6261 31.3263 29.7554 31.2588 29.8468 31.1517C30.217 30.7764 30.6755 30.501 31.1799 30.3507C31.7363 30.3173 32.2906 30.4452 32.7765 30.7191C33.4578 30.9309 34.0645 31.3339 34.5248 31.8805C34.6512 32.1625 34.6935 32.4751 34.6468 32.7807C34.6 33.0862 34.4662 33.3717 34.2613 33.6026C33.9166 34.0035 33.4866 34.3218 33.0031 34.5338C32.5195 34.7459 31.9947 34.8465 31.4673 34.8281C31.1712 34.8269 30.8762 34.7892 30.5892 34.716C29.8996 34.53 29.2407 34.244 28.6334 33.867C28.1682 33.5949 27.7179 33.2982 27.2843 32.9779C25.8602 31.937 24.651 30.6285 23.7239 29.1252C23.2528 28.3708 22.8698 27.5645 22.5824 26.7223C22.1871 25.8474 22.0354 24.8814 22.1433 23.9269C22.2253 23.383 22.4393 22.8678 22.7665 22.4264C23.0936 21.9851 23.5238 21.6311 24.0193 21.3958C24.3186 21.2575 24.6532 21.2156 24.9772 21.2757C25.6398 21.4198 26.031 22.3089 26.3503 22.8536Z" fill="white"/>
</svg>
