<svg width="405" height="550" viewBox="0 0 405 550" fill="none" xmlns="http://www.w3.org/2000/svg">
<g filter="url(#filter0_dd_11_1678)">
<path d="M225 82.6963C225 73.8977 223.267 65.1853 219.9 57.0565C216.533 48.9277 211.598 41.5417 205.376 35.3201C199.155 29.0986 191.769 24.1634 183.64 20.7964C175.511 17.4293 166.799 15.6963 158 15.6963V47.6955C162.596 47.6955 167.148 48.6008 171.394 50.3598C175.641 52.1187 179.499 54.6969 182.749 57.947C185.999 61.1971 188.578 65.0556 190.337 69.3021C192.095 73.5486 193.001 78.0999 193.001 82.6963H225Z" fill="#9333EA"/>
<rect x="225" y="82.6963" width="749" height="32" transform="rotate(90 225 82.6963)" fill="#9333EA"/>
<rect x="158" y="15.6963" width="32" height="120" transform="rotate(90 158 15.6963)" fill="#9333EA"/>
</g>
<g filter="url(#filter1_dd_11_1678)">
<path d="M367 242.696C367 233.898 365.267 225.185 361.9 217.056C358.533 208.928 353.598 201.542 347.376 195.32C341.155 189.099 333.769 184.163 325.64 180.796C317.511 177.429 308.799 175.696 300 175.696V207.695C304.596 207.695 309.148 208.601 313.394 210.36C317.641 212.119 321.499 214.697 324.749 217.947C327.999 221.197 330.578 225.056 332.337 229.302C334.095 233.549 335.001 238.1 335.001 242.696H367Z" fill="#C026D3"/>
<rect x="367" y="242.696" width="589" height="32" transform="rotate(90 367 242.696)" fill="#C026D3"/>
<rect x="300" y="175.696" width="32" height="262" transform="rotate(90 300 175.696)" fill="#C026D3"/>
</g>
<g filter="url(#filter2_dd_11_1678)">
<path d="M300 162.696C300 153.898 298.267 145.185 294.9 137.056C291.533 128.928 286.598 121.542 280.376 115.32C274.155 109.099 266.769 104.163 258.64 100.796C250.511 97.4293 241.799 95.6963 233 95.6963V127.695C237.596 127.695 242.148 128.601 246.394 130.36C250.641 132.119 254.499 134.697 257.749 137.947C260.999 141.197 263.578 145.056 265.337 149.302C267.095 153.549 268.001 158.1 268.001 162.696H300Z" fill="#8ED4DD"/>
<rect x="300" y="162.696" width="669" height="32" transform="rotate(90 300 162.696)" fill="#8ED4DD"/>
<rect x="233" y="95.6963" width="32" height="195" transform="rotate(90 233 95.6963)" fill="#8ED4DD"/>
</g>
<defs>
<filter id="filter0_dd_11_1678" x="0" y="0.696289" width="263" height="894" filterUnits="userSpaceOnUse" color-interpolation-filters="sRGB">
<feFlood flood-opacity="0" result="BackgroundImageFix"/>
<feColorMatrix in="SourceAlpha" type="matrix" values="0 0 0 0 0 0 0 0 0 0 0 0 0 0 0 0 0 0 127 0" result="hardAlpha"/>
<feOffset/>
<feGaussianBlur stdDeviation="7.5"/>
<feComposite in2="hardAlpha" operator="out"/>
<feColorMatrix type="matrix" values="0 0 0 0 0 0 0 0 0 0 0 0 0 0 0 0 0 0 0.07 0"/>
<feBlend mode="normal" in2="BackgroundImageFix" result="effect1_dropShadow_11_1678"/>
<feColorMatrix in="SourceAlpha" type="matrix" values="0 0 0 0 0 0 0 0 0 0 0 0 0 0 0 0 0 0 127 0" result="hardAlpha"/>
<feMorphology radius="12" operator="erode" in="SourceAlpha" result="effect2_dropShadow_11_1678"/>
<feOffset dy="25"/>
<feGaussianBlur stdDeviation="25"/>
<feColorMatrix type="matrix" values="0 0 0 0 0 0 0 0 0 0 0 0 0 0 0 0 0 0 0.25 0"/>
<feBlend mode="normal" in2="effect1_dropShadow_11_1678" result="effect2_dropShadow_11_1678"/>
<feBlend mode="normal" in="SourceGraphic" in2="effect2_dropShadow_11_1678" result="shape"/>
</filter>
<filter id="filter1_dd_11_1678" x="0" y="160.696" width="405" height="734" filterUnits="userSpaceOnUse" color-interpolation-filters="sRGB">
<feFlood flood-opacity="0" result="BackgroundImageFix"/>
<feColorMatrix in="SourceAlpha" type="matrix" values="0 0 0 0 0 0 0 0 0 0 0 0 0 0 0 0 0 0 127 0" result="hardAlpha"/>
<feOffset/>
<feGaussianBlur stdDeviation="7.5"/>
<feComposite in2="hardAlpha" operator="out"/>
<feColorMatrix type="matrix" values="0 0 0 0 0 0 0 0 0 0 0 0 0 0 0 0 0 0 0.07 0"/>
<feBlend mode="normal" in2="BackgroundImageFix" result="effect1_dropShadow_11_1678"/>
<feColorMatrix in="SourceAlpha" type="matrix" values="0 0 0 0 0 0 0 0 0 0 0 0 0 0 0 0 0 0 127 0" result="hardAlpha"/>
<feMorphology radius="12" operator="erode" in="SourceAlpha" result="effect2_dropShadow_11_1678"/>
<feOffset dy="25"/>
<feGaussianBlur stdDeviation="25"/>
<feColorMatrix type="matrix" values="0 0 0 0 0 0 0 0 0 0 0 0 0 0 0 0 0 0 0.25 0"/>
<feBlend mode="normal" in2="effect1_dropShadow_11_1678" result="effect2_dropShadow_11_1678"/>
<feBlend mode="normal" in="SourceGraphic" in2="effect2_dropShadow_11_1678" result="shape"/>
</filter>
<filter id="filter2_dd_11_1678" x="0" y="80.6963" width="338" height="814" filterUnits="userSpaceOnUse" color-interpolation-filters="sRGB">
<feFlood flood-opacity="0" result="BackgroundImageFix"/>
<feColorMatrix in="SourceAlpha" type="matrix" values="0 0 0 0 0 0 0 0 0 0 0 0 0 0 0 0 0 0 127 0" result="hardAlpha"/>
<feOffset/>
<feGaussianBlur stdDeviation="7.5"/>
<feComposite in2="hardAlpha" operator="out"/>
<feColorMatrix type="matrix" values="0 0 0 0 0 0 0 0 0 0 0 0 0 0 0 0 0 0 0.07 0"/>
<feBlend mode="normal" in2="BackgroundImageFix" result="effect1_dropShadow_11_1678"/>
<feColorMatrix in="SourceAlpha" type="matrix" values="0 0 0 0 0 0 0 0 0 0 0 0 0 0 0 0 0 0 127 0" result="hardAlpha"/>
<feMorphology radius="12" operator="erode" in="SourceAlpha" result="effect2_dropShadow_11_1678"/>
<feOffset dy="25"/>
<feGaussianBlur stdDeviation="25"/>
<feColorMatrix type="matrix" values="0 0 0 0 0 0 0 0 0 0 0 0 0 0 0 0 0 0 0.25 0"/>
<feBlend mode="normal" in2="effect1_dropShadow_11_1678" result="effect2_dropShadow_11_1678"/>
<feBlend mode="normal" in="SourceGraphic" in2="effect2_dropShadow_11_1678" result="shape"/>
</filter>
</defs>
</svg>
