<svg width="140" height="583" viewBox="0 0 140 583" fill="none" xmlns="http://www.w3.org/2000/svg">
<path d="M128.023 149.747L131.624 147.854L130.937 151.864L133.851 154.703L129.825 155.288L128.023 158.937L126.223 155.288L122.197 154.703L125.11 151.864L124.422 147.854L128.023 149.747Z" fill="#C026D3"/>
<g clip-path="url(#clip0_30_2247)">
<path d="M133.523 385.044L136.353 383.557L135.812 386.707L138.102 388.938L134.939 389.398L133.523 392.265L132.109 389.398L128.945 388.938L131.235 386.707L130.694 383.557L133.523 385.044Z" fill="#C026D3"/>
</g>
<g clip-path="url(#clip1_30_2247)">
<path d="M104.488 207.033C106.099 207.033 107.405 208.339 107.405 209.95C107.405 211.561 106.099 212.866 104.488 212.866C102.877 212.866 101.572 211.561 101.572 209.95C101.572 208.339 102.877 207.033 104.488 207.033Z" fill="#C026D3"/>
</g>
<g clip-path="url(#clip2_30_2247)">
<path d="M105.973 94.1126C107.814 94.1126 109.306 95.605 109.306 97.446C109.306 99.287 107.814 100.779 105.973 100.779C104.132 100.779 102.639 99.287 102.639 97.446C102.639 95.605 104.132 94.1126 105.973 94.1126Z" fill="#C026D3"/>
</g>
<g clip-path="url(#clip3_30_2247)">
<path d="M41.0234 74.2739C43.3247 74.2739 45.1901 76.1393 45.1901 78.4406C45.1901 80.7418 43.3247 82.6072 41.0234 82.6072C38.7222 82.6072 36.8568 80.7418 36.8568 78.4406C36.8568 76.1393 38.7222 74.2739 41.0234 74.2739Z" fill="#C026D3"/>
</g>
<g clip-path="url(#clip4_30_2247)">
<path d="M73.9766 168.274C76.2778 168.274 78.1432 170.139 78.1432 172.441C78.1432 174.742 76.2778 176.607 73.9766 176.607C71.6753 176.607 69.8099 174.742 69.8099 172.441C69.8099 170.139 71.6753 168.274 73.9766 168.274Z" fill="#C026D3"/>
</g>
<g clip-path="url(#clip5_30_2247)">
<path d="M123.523 515.355C126.055 515.355 128.107 517.407 128.107 519.938C128.107 522.469 126.055 524.521 123.523 524.521C120.992 524.521 118.94 522.469 118.94 519.938C118.94 517.407 120.992 515.355 123.523 515.355Z" fill="#C026D3"/>
</g>
<g clip-path="url(#clip6_30_2247)">
<path d="M123.023 289.79C123.944 289.79 124.69 290.536 124.69 291.457C124.69 292.377 123.944 293.124 123.023 293.124C122.103 293.124 121.357 292.377 121.357 291.457C121.357 290.536 122.103 289.79 123.023 289.79Z" fill="#C026D3"/>
</g>
<path d="M3.49999 253.033C5.11086 253.033 6.41666 254.339 6.41666 255.95C6.41666 257.561 5.11086 258.866 3.49999 258.866C1.88911 258.866 0.583323 257.561 0.583323 255.95C0.583323 254.339 1.88911 253.033 3.49999 253.033Z" fill="#C026D3"/>
<g clip-path="url(#clip7_30_2247)">
<path d="M8.97656 485.951C10.3573 485.951 11.4766 487.071 11.4766 488.451C11.4766 489.832 10.3573 490.951 8.97656 490.951C7.59581 490.951 6.47656 489.832 6.47656 488.451C6.47656 487.071 7.59581 485.951 8.97656 485.951Z" fill="#C026D3"/>
</g>
<path d="M88.6484 420.343V423.468C88.6484 423.633 88.7143 423.792 88.8315 423.91C88.9487 424.027 89.1077 424.093 89.2734 424.093C89.4392 424.093 89.5982 424.027 89.7154 423.91C89.8326 423.792 89.8984 423.633 89.8984 423.468V420.343H93.0234C93.1892 420.343 93.3482 420.277 93.4654 420.16C93.5826 420.042 93.6484 419.883 93.6484 419.718C93.6484 419.552 93.5826 419.393 93.4654 419.276C93.3482 419.158 93.1892 419.093 93.0234 419.093H89.8984V415.968C89.8984 415.802 89.8326 415.643 89.7154 415.526C89.5982 415.408 89.4392 415.343 89.2734 415.343C89.1077 415.343 88.9487 415.408 88.8315 415.526C88.7143 415.643 88.6484 415.802 88.6484 415.968V419.093H85.5234C85.3577 419.093 85.1987 419.158 85.0815 419.276C84.9643 419.393 84.8984 419.552 84.8984 419.718C84.8984 419.883 84.9643 420.042 85.0815 420.16C85.1987 420.277 85.3577 420.343 85.5234 420.343H88.6484Z" fill="#C026D3"/>
<path d="M105.557 348.668V350.334C105.557 350.423 105.592 350.507 105.654 350.57C105.717 350.632 105.802 350.668 105.89 350.668C105.979 350.668 106.063 350.632 106.126 350.57C106.188 350.507 106.223 350.423 106.223 350.334V348.668H107.89C107.979 348.668 108.063 348.632 108.126 348.57C108.188 348.507 108.223 348.423 108.223 348.334C108.223 348.246 108.188 348.161 108.126 348.099C108.063 348.036 107.979 348.001 107.89 348.001H106.223V346.334C106.223 346.246 106.188 346.161 106.126 346.099C106.063 346.036 105.979 346.001 105.89 346.001C105.802 346.001 105.717 346.036 105.654 346.099C105.592 346.161 105.557 346.246 105.557 346.334V348.001H103.89C103.802 348.001 103.717 348.036 103.654 348.099C103.592 348.161 103.557 348.246 103.557 348.334C103.557 348.423 103.592 348.507 103.654 348.57C103.717 348.632 103.802 348.668 103.89 348.668H105.557Z" fill="#C026D3"/>
<g clip-path="url(#clip8_30_2247)">
<path d="M49.0234 312.951C50.4042 312.951 51.5234 314.071 51.5234 315.451C51.5234 316.832 50.4042 317.951 49.0234 317.951C47.6427 317.951 46.5234 316.832 46.5234 315.451C46.5234 314.071 47.6427 312.951 49.0234 312.951Z" fill="#C026D3"/>
</g>
<path d="M89.3234 41.7676V44.2676C89.3234 44.4002 89.3761 44.5274 89.4699 44.6212C89.5636 44.715 89.6908 44.7676 89.8234 44.7676C89.956 44.7676 90.0832 44.715 90.177 44.6212C90.2707 44.5274 90.3234 44.4002 90.3234 44.2676V41.7676H92.8234C92.956 41.7676 93.0832 41.715 93.177 41.6212C93.2707 41.5274 93.3234 41.4002 93.3234 41.2676C93.3234 41.135 93.2707 41.0079 93.177 40.9141C93.0832 40.8203 92.956 40.7676 92.8234 40.7676H90.3234V38.2676C90.3234 38.135 90.2707 38.0079 90.177 37.9141C90.0832 37.8203 89.956 37.7676 89.8234 37.7676C89.6908 37.7676 89.5636 37.8203 89.4699 37.9141C89.3761 38.0079 89.3234 38.135 89.3234 38.2676V40.7676H86.8234C86.6908 40.7676 86.5636 40.8203 86.4699 40.9141C86.3761 41.0079 86.3234 41.135 86.3234 41.2676C86.3234 41.4002 86.3761 41.5274 86.4699 41.6212C86.5636 41.715 86.6908 41.7676 86.8234 41.7676H89.3234Z" fill="#C026D3"/>
<path d="M3.24969 164.988L2.51324 165.725C2.49334 165.744 2.47747 165.767 2.46655 165.793C2.45563 165.818 2.44988 165.846 2.44964 165.873C2.4494 165.901 2.45467 165.928 2.46515 165.954C2.47562 165.979 2.49109 166.003 2.51065 166.022C2.53022 166.042 2.55348 166.057 2.57908 166.068C2.60468 166.078 2.63212 166.084 2.65978 166.083C2.68744 166.083 2.71478 166.077 2.7402 166.066C2.76561 166.055 2.7886 166.04 2.80782 166.02L3.54449 165.283L4.28094 166.02C4.30016 166.04 4.32315 166.055 4.34857 166.066C4.37399 166.077 4.40132 166.083 4.42899 166.083C4.45665 166.084 4.48408 166.078 4.50969 166.068C4.53529 166.057 4.55855 166.042 4.57811 166.022C4.59767 166.003 4.61314 165.979 4.62362 165.954C4.63409 165.928 4.63936 165.901 4.63912 165.873C4.63888 165.846 4.63313 165.818 4.62222 165.793C4.6113 165.767 4.59543 165.744 4.57553 165.725L3.83907 164.989L4.57553 164.252C4.59543 164.233 4.6113 164.21 4.62222 164.184C4.63313 164.159 4.63888 164.132 4.63912 164.104C4.63936 164.076 4.63409 164.049 4.62362 164.023C4.61314 163.998 4.59767 163.974 4.57811 163.955C4.55855 163.935 4.53529 163.92 4.50969 163.909C4.48408 163.899 4.45665 163.894 4.42899 163.894C4.40132 163.894 4.37399 163.9 4.34857 163.911C4.32315 163.922 4.30016 163.938 4.28094 163.957L3.54449 164.694L2.80782 163.957C2.7886 163.938 2.76561 163.922 2.7402 163.911C2.71478 163.9 2.68744 163.894 2.65978 163.894C2.63212 163.894 2.60468 163.899 2.57908 163.909C2.55348 163.92 2.53022 163.935 2.51065 163.955C2.49109 163.974 2.47562 163.998 2.46515 164.023C2.45467 164.049 2.4494 164.076 2.44964 164.104C2.44988 164.132 2.45563 164.159 2.46655 164.184C2.47747 164.21 2.49334 164.233 2.51324 164.252L3.24969 164.989V164.988Z" fill="#C026D3"/>
<path d="M101.702 575.03L99.4928 577.24C99.4331 577.298 99.3855 577.367 99.3527 577.443C99.32 577.519 99.3027 577.601 99.302 577.684C99.3013 577.767 99.3171 577.85 99.3485 577.926C99.38 578.003 99.4264 578.073 99.4851 578.132C99.5437 578.19 99.6135 578.237 99.6903 578.268C99.7671 578.3 99.8494 578.315 99.9324 578.315C100.015 578.314 100.097 578.297 100.174 578.264C100.25 578.231 100.319 578.184 100.377 578.124L102.587 575.915L104.796 578.124C104.854 578.184 104.923 578.231 104.999 578.264C105.075 578.297 105.157 578.314 105.24 578.315C105.323 578.315 105.405 578.3 105.482 578.268C105.559 578.237 105.629 578.19 105.687 578.132C105.746 578.073 105.793 578.003 105.824 577.926C105.855 577.85 105.871 577.767 105.87 577.684C105.87 577.601 105.852 577.519 105.82 577.443C105.787 577.367 105.739 577.298 105.68 577.24L103.47 575.031L105.68 572.821C105.739 572.763 105.787 572.694 105.82 572.618C105.852 572.542 105.87 572.46 105.87 572.377C105.871 572.294 105.855 572.211 105.824 572.135C105.793 572.058 105.746 571.988 105.687 571.929C105.629 571.871 105.559 571.824 105.482 571.793C105.405 571.761 105.323 571.746 105.24 571.746C105.157 571.747 105.075 571.764 104.999 571.797C104.923 571.83 104.854 571.877 104.796 571.937L102.587 574.146L100.377 571.937C100.319 571.877 100.25 571.83 100.174 571.797C100.097 571.764 100.015 571.747 99.9324 571.746C99.8494 571.746 99.7671 571.761 99.6903 571.793C99.6135 571.824 99.5437 571.871 99.4851 571.929C99.4264 571.988 99.38 572.058 99.3485 572.135C99.3171 572.211 99.3013 572.294 99.302 572.377C99.3027 572.46 99.32 572.542 99.3527 572.618C99.3855 572.694 99.4331 572.763 99.4928 572.821L101.702 575.031V575.03Z" fill="#C026D3"/>
<path d="M9.28827 6.76862V9.26862C9.28827 9.40122 9.34095 9.5284 9.43472 9.62217C9.52848 9.71594 9.65566 9.76862 9.78827 9.76862C9.92088 9.76862 10.0481 9.71594 10.1418 9.62217C10.2356 9.5284 10.2883 9.40122 10.2883 9.26862V6.76862H12.7883C12.9209 6.76862 13.0481 6.71594 13.1418 6.62217C13.2356 6.5284 13.2883 6.40122 13.2883 6.26862C13.2883 6.13601 13.2356 6.00883 13.1418 5.91506C13.0481 5.82129 12.9209 5.76862 12.7883 5.76862H10.2883V3.26862C10.2883 3.13601 10.2356 3.00883 10.1418 2.91506C10.0481 2.82129 9.92088 2.76862 9.78827 2.76862C9.65566 2.76862 9.52848 2.82129 9.43472 2.91506C9.34095 3.00883 9.28827 3.13601 9.28827 3.26862V5.76862H6.78827C6.65566 5.76862 6.52848 5.82129 6.43472 5.91506C6.34095 6.00883 6.28827 6.13601 6.28827 6.26862C6.28827 6.40122 6.34095 6.5284 6.43472 6.62217C6.52848 6.71594 6.65566 6.76862 6.78827 6.76862H9.28827Z" fill="#C026D3"/>
<path d="M76.4401 520.718V522.801C76.4401 522.911 76.484 523.017 76.5621 523.096C76.6403 523.174 76.7463 523.218 76.8568 523.218C76.9673 523.218 77.0733 523.174 77.1514 523.096C77.2295 523.017 77.2734 522.911 77.2734 522.801V520.718H79.3568C79.4673 520.718 79.5733 520.674 79.6514 520.596C79.7295 520.517 79.7734 520.411 79.7734 520.301C79.7734 520.19 79.7295 520.084 79.6514 520.006C79.5733 519.928 79.4673 519.884 79.3568 519.884H77.2734V517.801C77.2734 517.69 77.2295 517.584 77.1514 517.506C77.0733 517.428 76.9673 517.384 76.8568 517.384C76.7463 517.384 76.6403 517.428 76.5621 517.506C76.484 517.584 76.4401 517.69 76.4401 517.801V519.884H74.3568C74.2463 519.884 74.1403 519.928 74.0621 520.006C73.984 520.084 73.9401 520.19 73.9401 520.301C73.9401 520.411 73.984 520.517 74.0621 520.596C74.1403 520.674 74.2463 520.718 74.3568 520.718H76.4401Z" fill="#C026D3"/>
<path d="M26.5854 191.501L25.4071 192.68C25.3753 192.71 25.3499 192.747 25.3324 192.788C25.3149 192.829 25.3057 192.872 25.3054 192.917C25.305 192.961 25.3134 193.005 25.3302 193.046C25.3469 193.087 25.3717 193.124 25.403 193.155C25.4343 193.186 25.4715 193.211 25.5125 193.228C25.5534 193.245 25.5973 193.253 25.6416 193.253C25.6858 193.252 25.7296 193.243 25.7702 193.226C25.8109 193.208 25.8477 193.183 25.8784 193.151L27.0571 191.973L28.2354 193.151C28.2662 193.183 28.303 193.208 28.3436 193.226C28.3843 193.243 28.428 193.252 28.4723 193.253C28.5166 193.253 28.5605 193.245 28.6014 193.228C28.6424 193.211 28.6796 193.186 28.7109 193.155C28.7422 193.124 28.767 193.087 28.7837 193.046C28.8005 193.005 28.8089 192.961 28.8085 192.917C28.8081 192.872 28.7989 192.829 28.7815 192.788C28.764 192.747 28.7386 192.71 28.7068 192.68L27.5284 191.501L28.7068 190.323C28.7386 190.292 28.764 190.255 28.7815 190.214C28.7989 190.174 28.8081 190.13 28.8085 190.086C28.8089 190.042 28.8005 189.998 28.7837 189.957C28.767 189.916 28.7422 189.878 28.7109 189.847C28.6796 189.816 28.6424 189.791 28.6014 189.774C28.5605 189.758 28.5166 189.749 28.4723 189.75C28.428 189.75 28.3843 189.759 28.3436 189.777C28.303 189.794 28.2662 189.819 28.2354 189.851L27.0571 191.03L25.8784 189.851C25.8477 189.819 25.8109 189.794 25.7702 189.777C25.7296 189.759 25.6858 189.75 25.6416 189.75C25.5973 189.749 25.5534 189.758 25.5125 189.774C25.4715 189.791 25.4343 189.816 25.403 189.847C25.3717 189.878 25.3469 189.916 25.3302 189.957C25.3134 189.998 25.305 190.042 25.3054 190.086C25.3057 190.13 25.3149 190.174 25.3324 190.214C25.3499 190.255 25.3753 190.292 25.4071 190.323L26.5854 191.501V191.501Z" fill="#C026D3"/>
<defs>
<clipPath id="clip0_30_2247">
<rect width="11" height="11" fill="white" transform="matrix(-1 0 0 -1 139.023 393.468)"/>
</clipPath>
<clipPath id="clip1_30_2247">
<rect width="7" height="7" fill="white" transform="matrix(-1 0 0 -1 107.988 213.469)"/>
</clipPath>
<clipPath id="clip2_30_2247">
<rect width="8" height="8" fill="white" transform="matrix(-1 0 0 -1 109.973 101.468)"/>
</clipPath>
<clipPath id="clip3_30_2247">
<rect width="10" height="10" fill="white" transform="matrix(-1 0 0 -1 46.0234 83.4677)"/>
</clipPath>
<clipPath id="clip4_30_2247">
<rect width="10" height="10" fill="white" transform="matrix(-1 0 0 -1 78.9766 177.468)"/>
</clipPath>
<clipPath id="clip5_30_2247">
<rect width="11" height="11" fill="white" transform="matrix(-1 0 0 -1 129.023 525.468)"/>
</clipPath>
<clipPath id="clip6_30_2247">
<rect width="4" height="4" fill="white" transform="matrix(-1 0 0 -1 125.023 293.468)"/>
</clipPath>
<clipPath id="clip7_30_2247">
<rect width="6" height="6" fill="white" transform="matrix(-1 0 0 -1 11.9766 491.468)"/>
</clipPath>
<clipPath id="clip8_30_2247">
<rect width="6" height="6" fill="white" transform="matrix(-1 0 0 -1 52.0234 318.468)"/>
</clipPath>
</defs>
</svg>
